<svg version="1.1" id="Layer_1" xmlns="http://www.w3.org/2000/svg" xmlns:xlink="http://www.w3.org/1999/xlink" x="0px" y="0px"
	 width="100%" viewBox="0 0 1154 545" enable-background="new 0 0 1154 545" xml:space="preserve">
<path fill="#FEFEFE" opacity="1.000000" stroke="none" 
	d="
M766.000000,546.000000 
	C510.666748,546.000000 255.833481,546.000000 1.000171,546.000000 
	C1.000114,364.333466 1.000114,182.666931 1.000057,1.000293 
	C385.666412,1.000195 770.332825,1.000195 1154.999512,1.000098 
	C1154.999634,182.666367 1154.999634,364.332733 1154.999756,545.999512 
	C1025.500000,546.000000 896.000000,546.000000 766.000000,546.000000 
M486.527191,24.663490 
	C485.628845,24.243362 484.730499,23.823233 483.832123,23.403105 
	C483.534637,24.886478 483.237152,26.369852 482.584198,28.324152 
	C482.073151,28.604071 481.562103,28.883989 480.632996,28.588047 
	C477.699371,27.541418 478.123718,29.602196 477.827728,31.754141 
	C477.213440,32.167095 476.599152,32.580051 475.131622,32.973877 
	C473.208801,33.234192 470.593475,32.787895 469.482544,33.876656 
	C464.571747,38.689507 460.090149,43.940727 455.501221,49.076206 
	C455.446411,49.137573 456.027985,49.767635 455.995453,50.783768 
	C455.002380,52.631035 454.064850,54.510754 453.007050,56.320152 
	C447.302582,66.077469 441.565613,75.815773 435.851166,85.567245 
	C435.515198,86.140541 435.277832,86.771622 435.125854,87.095802 
	C401.806183,72.652283 369.712952,73.011665 339.160767,91.695755 
	C308.511658,110.439133 293.272919,138.835022 291.406921,174.784286 
	C260.777893,170.638275 233.290375,176.848907 209.790726,196.914169 
	C186.308502,216.964523 174.985153,242.864899 174.493195,273.626221 
	C98.806526,256.117554 35.381710,300.242462 14.024139,356.717407 
	C-8.345045,415.867310 12.164666,481.781403 63.982693,517.227173 
	C89.930138,534.976318 118.776344,543.000122 150.035934,540.636841 
	C197.068817,537.080994 232.721268,514.015991 258.361176,474.287872 
	C282.840729,496.410065 310.542511,507.860199 343.248230,503.726959 
	C375.924133,499.597504 400.282745,482.344086 417.548981,454.178375 
	C440.938080,475.996490 468.180450,485.465485 499.457611,481.726898 
	C530.744080,477.987244 554.595337,461.759277 572.076172,435.557434 
	C573.246948,437.031433 574.009583,437.906647 574.679749,438.847717 
	C596.652893,469.703430 626.611023,484.308685 664.376648,482.171387 
	C688.177063,480.824493 708.562805,471.034424 726.468933,454.742096 
	C726.742737,454.527130 726.905212,454.247498 727.213196,453.504761 
	C727.418640,453.247986 727.680908,453.079712 728.740417,453.010010 
	C730.927368,451.367371 733.114319,449.724731 736.007629,447.551514 
	C736.217896,447.580841 737.647339,447.780243 739.410828,448.595154 
	C740.836670,450.773682 742.361877,452.894165 743.673523,455.139404 
	C767.441467,495.823792 815.968140,514.322693 860.687866,499.445038 
	C877.855591,493.733582 892.697388,484.288269 904.392334,470.196838 
	C905.255066,469.157227 908.029358,468.328400 908.873962,468.910950 
	C911.267212,470.561493 913.101868,473.013641 915.187866,475.119049 
	C956.016724,516.327759 1004.571167,530.059387 1059.560791,511.253204 
	C1111.326050,493.549774 1141.667969,455.378296 1149.513306,401.362335 
	C1155.709106,358.703094 1143.114258,320.567261 1112.737183,289.665588 
	C1076.586304,252.890411 1032.617798,240.690308 982.316895,252.180527 
	C974.173767,254.040680 966.328247,257.203796 958.145691,259.828613 
	C951.413879,232.922501 936.028809,212.377960 912.886108,197.799652 
	C944.063721,128.777466 915.103516,58.124981 862.696655,25.181934 
	C834.999512,7.771450 804.698364,0.791994 772.383728,5.284139 
	C731.104370,11.022497 698.886658,32.038811 675.921814,66.032936 
	C667.657349,56.955856 660.318054,47.348785 651.460266,39.443108 
	C619.096375,10.558000 581.162476,-0.532292 538.175415,5.905890 
	C519.779175,8.661099 502.963562,15.573234 486.527191,24.663490 
z"/>
<path fill="#324460" opacity="1.000000" stroke="none" 
	d="
M475.984863,32.992992 
	C476.599152,32.580051 477.213440,32.167095 478.287964,31.453840 
	C479.515808,30.490324 480.283417,29.827106 481.051056,29.163898 
	C481.562103,28.883989 482.073151,28.604071 483.076599,28.025743 
	C484.748413,26.841288 485.927856,25.955240 487.107300,25.069199 
	C502.963562,15.573234 519.779175,8.661099 538.175415,5.905890 
	C581.162476,-0.532292 619.096375,10.558000 651.460266,39.443108 
	C660.318054,47.348785 667.657349,56.955856 675.921814,66.032936 
	C698.886658,32.038811 731.104370,11.022497 772.383728,5.284139 
	C804.698364,0.791994 834.999512,7.771450 862.696655,25.181934 
	C915.103516,58.124981 944.063721,128.777466 912.886108,197.799652 
	C936.028809,212.377960 951.413879,232.922501 958.145691,259.828613 
	C966.328247,257.203796 974.173767,254.040680 982.316895,252.180527 
	C1032.617798,240.690308 1076.586304,252.890411 1112.737183,289.665588 
	C1143.114258,320.567261 1155.709106,358.703094 1149.513306,401.362335 
	C1141.667969,455.378296 1111.326050,493.549774 1059.560791,511.253204 
	C1004.571167,530.059387 956.016724,516.327759 915.187866,475.119049 
	C913.101868,473.013641 911.267212,470.561493 908.873962,468.910950 
	C908.029358,468.328400 905.255066,469.157227 904.392334,470.196838 
	C892.697388,484.288269 877.855591,493.733582 860.687866,499.445038 
	C815.968140,514.322693 767.441467,495.823792 743.673523,455.139404 
	C742.361877,452.894165 740.836670,450.773682 739.349731,447.921021 
	C738.727905,445.624634 738.167053,444.002380 737.342712,441.617889 
	C733.836853,445.889008 730.918396,449.444458 727.999939,452.999939 
	C727.680908,453.079712 727.418640,453.247986 726.799194,453.752319 
	C726.273071,454.334473 726.160889,454.669098 726.048706,455.003693 
	C708.562805,471.034424 688.177063,480.824493 664.376648,482.171387 
	C626.611023,484.308685 596.652893,469.703430 574.679749,438.847717 
	C574.009583,437.906647 573.246948,437.031433 572.076172,435.557434 
	C554.595337,461.759277 530.744080,477.987244 499.457611,481.726898 
	C468.180450,485.465485 440.938080,475.996490 417.548981,454.178375 
	C400.282745,482.344086 375.924133,499.597504 343.248230,503.726959 
	C310.542511,507.860199 282.840729,496.410065 258.361176,474.287872 
	C232.721268,514.015991 197.068817,537.080994 150.035934,540.636841 
	C118.776344,543.000122 89.930138,534.976318 63.982693,517.227173 
	C12.164666,481.781403 -8.345045,415.867310 14.024139,356.717407 
	C35.381710,300.242462 98.806526,256.117554 174.493195,273.626221 
	C174.985153,242.864899 186.308502,216.964523 209.790726,196.914169 
	C233.290375,176.848907 260.777893,170.638275 291.406921,174.784286 
	C293.272919,138.835022 308.511658,110.439133 339.160767,91.695755 
	C369.712952,73.011665 401.806183,72.652283 435.125854,87.095802 
	C435.277832,86.771622 435.515198,86.140541 435.851166,85.567245 
	C441.565613,75.815773 447.302582,66.077469 453.007050,56.320152 
	C454.064850,54.510754 455.002380,52.631035 456.507507,50.513039 
	C463.341339,44.492535 469.663116,38.742756 475.984863,32.992992 
M678.076294,73.208817 
	C677.144592,74.464157 676.212952,75.719505 675.027954,77.316200 
	C674.274780,76.107368 673.840820,75.429977 673.425476,74.741394 
	C644.446838,26.697739 593.845886,2.190160 538.811035,11.398725 
	C492.294647,19.181967 459.690430,45.993435 440.495300,89.034401 
	C439.583557,91.078781 439.185059,93.535301 439.219818,95.789513 
	C439.494720,113.614998 441.863342,131.056839 449.091736,148.000275 
	C448.621368,148.291595 448.151001,148.582901 447.164551,148.340775 
	C438.742767,132.422180 435.506134,115.162933 434.342712,97.443871 
	C434.111603,93.923988 432.922363,92.145393 429.756042,90.791466 
	C411.994781,83.196678 393.740509,80.688072 374.554535,83.856270 
	C339.218994,89.691246 307.989319,118.182877 300.068756,152.955063 
	C297.982727,162.113037 297.308746,171.592636 295.975464,181.001099 
	C253.359924,173.389587 217.875748,185.959427 194.262177,223.516937 
	C170.010178,262.089813 177.752487,298.892975 205.244690,333.291412 
	C203.464752,332.577179 202.038574,331.662476 200.872223,330.489380 
	C188.149063,317.693054 180.958847,301.914001 176.702194,284.683167 
	C175.816620,281.098450 174.224716,279.399841 170.685623,278.620636 
	C155.415558,275.258759 140.109421,274.283264 124.514877,276.143860 
	C52.105415,284.783234 0.404872,353.654663 11.973908,425.809906 
	C21.550781,485.540161 71.663666,531.573547 131.453308,535.175720 
	C178.301361,537.998291 216.275818,520.358398 245.151657,483.401917 
	C249.721375,477.553375 253.439560,471.039551 257.807037,464.447510 
	C259.145782,465.897675 260.362701,467.217499 261.581390,468.535736 
	C305.407867,515.941223 382.631073,507.247650 412.675171,450.723938 
	C425.029266,427.481445 426.254639,401.922089 421.488373,376.072601 
	C422.296295,376.036621 423.104187,376.000641 423.566376,376.762268 
	C428.979218,400.100739 427.964996,423.155365 420.676331,445.978668 
	C420.310120,447.125397 420.668121,449.138458 421.483337,449.930176 
	C430.595276,458.779449 440.567810,466.374664 453.389404,470.811554 
	C505.328369,487.700562 544.099304,470.076782 572.472839,425.191681 
	C590.360229,456.996735 616.818787,475.688232 653.586670,477.001526 
	C690.512329,478.320465 718.343506,461.430298 738.598633,430.336761 
	C739.489929,432.540100 740.176514,434.023285 740.699280,435.562195 
	C747.288513,454.960510 758.941223,470.630615 775.768860,482.250854 
	C794.813782,495.402283 815.867920,501.206848 839.930969,498.510315 
	C868.557922,495.190735 890.605103,480.849121 907.707092,457.501343 
	C909.072754,459.238647 910.194397,460.638611 911.287781,462.060394 
	C952.605225,515.786377 1025.745361,529.734558 1083.405396,494.296326 
	C1113.319824,475.910767 1133.026611,449.511932 1141.820557,414.477264 
	C1153.109619,360.733917 1138.317993,315.228210 1095.317017,281.330872 
	C1052.199097,247.341354 1004.332520,244.882889 954.434631,267.908752 
	C948.731873,237.699417 932.473145,215.070023 906.227600,200.138702 
	C906.227600,199.272278 906.125488,198.902313 906.244019,198.627563 
	C907.034973,196.794418 907.870056,194.980255 908.696289,193.162430 
	C919.542603,169.299271 923.049561,144.356552 918.729126,118.547508 
	C904.329041,32.526321 811.824646,-15.347284 733.318359,22.575356 
	C710.117126,33.782791 691.594360,50.338795 678.076294,73.208817 
z"/>
<path fill="#E3E6E8" opacity="1.000000" stroke="none" 
	d="
M475.558228,32.983429 
	C469.663116,38.742756 463.341339,44.492535 456.666046,50.187279 
	C456.027985,49.767635 455.446411,49.137573 455.501221,49.076206 
	C460.090149,43.940727 464.571747,38.689507 469.482544,33.876656 
	C470.593475,32.787895 473.208801,33.234192 475.558228,32.983429 
z"/>
<path fill="#DDE3E8" opacity="1.000000" stroke="none" 
	d="
M728.370178,453.004974 
	C730.918396,449.444458 733.836853,445.889008 737.342712,441.617889 
	C738.167053,444.002380 738.727905,445.624634 739.182739,447.613220 
	C737.647339,447.780243 736.217896,447.580841 736.007629,447.551514 
	C733.114319,449.724731 730.927368,451.367371 728.370178,453.004974 
z"/>
<path fill="#E3E6E8" opacity="1.000000" stroke="none" 
	d="
M486.817261,24.866341 
	C485.927856,25.955240 484.748413,26.841288 483.254333,27.790279 
	C483.237152,26.369852 483.534637,24.886478 483.832153,23.403103 
	C484.730499,23.823233 485.628845,24.243362 486.817261,24.866341 
z"/>
<path fill="#E3E6E8" opacity="1.000000" stroke="none" 
	d="
M480.842041,28.875969 
	C480.283417,29.827106 479.515808,30.490324 478.443298,31.218685 
	C478.123718,29.602196 477.699371,27.541418 480.842041,28.875969 
z"/>
<path fill="#DDE3E8" opacity="1.000000" stroke="none" 
	d="
M726.258789,454.872894 
	C726.160889,454.669098 726.273071,454.334473 726.670776,453.951538 
	C726.905212,454.247498 726.742737,454.527130 726.258789,454.872894 
z"/>
<path fill="#F0F0F0" opacity="1.000000" stroke="none" 
	d="
M1141.365356,415.069763 
	C1133.026611,449.511932 1113.319824,475.910767 1083.405396,494.296326 
	C1025.745361,529.734558 952.605225,515.786377 911.287781,462.060394 
	C910.194397,460.638611 909.072754,459.238647 907.707092,457.501343 
	C890.605103,480.849121 868.557922,495.190735 839.471436,498.071655 
	C838.518860,496.792084 838.202393,495.748138 837.505371,495.141663 
	C830.372986,488.936188 823.179321,482.801147 816.001892,476.647583 
	C799.282654,462.313416 784.581238,446.013153 771.063110,428.745331 
	C761.067017,415.976440 752.253357,402.279938 742.969238,388.957428 
	C741.227295,386.457794 740.002930,386.603607 738.003601,388.864380 
	C729.787903,398.154755 721.800781,407.706268 712.936157,416.347839 
	C703.418335,425.626160 691.769531,431.823608 678.788025,434.968628 
	C658.624817,439.853546 639.176941,437.001312 620.609558,428.215118 
	C600.206604,418.560364 582.951904,404.609406 567.656006,388.145142 
	C565.416565,385.734680 563.340271,383.172607 560.612061,380.013092 
	C558.890381,383.741669 557.780090,386.094055 556.712769,388.465759 
	C546.394104,411.393829 530.041809,429.223114 509.438293,443.139252 
	C493.249634,454.073456 475.636139,462.254120 456.794861,467.679382 
	C455.363525,468.091522 454.190063,469.399170 452.896759,470.290527 
	C440.567810,466.374664 430.595276,458.779449 421.483337,449.930176 
	C420.668121,449.138458 420.310120,447.125397 420.676331,445.978668 
	C427.964996,423.155365 428.979218,400.100739 424.201416,376.404419 
	C425.835449,376.049408 426.861145,375.904572 427.829132,376.079315 
	C433.485291,377.100494 435.652466,374.624695 437.373657,369.142883 
	C444.789093,345.525604 452.886108,322.122437 460.726654,298.638519 
	C463.813660,289.392426 466.878998,280.139130 470.196716,270.159668 
	C462.304260,270.159668 455.011810,270.517029 447.775818,270.032104 
	C443.071350,269.716858 441.463440,271.622650 440.459686,275.795013 
	C436.770996,291.127838 432.823547,306.398865 428.887482,321.670990 
	C428.488617,323.218628 427.509888,324.616791 426.800262,326.084351 
	C421.476440,309.501434 416.955780,293.195038 413.165863,276.720551 
	C411.895630,271.198944 409.641663,269.603058 404.207245,270.015686 
	C397.208130,270.547150 390.138184,270.145081 382.309998,270.145081 
	C391.143005,295.201111 399.586060,319.150970 407.627747,343.045197 
	C404.473541,341.004120 401.720673,339.018677 398.970459,336.697998 
	C398.305939,335.919891 397.638763,335.477020 396.953094,334.863098 
	C396.835266,334.724701 396.735931,334.757355 396.636597,334.789978 
	C396.767731,334.852936 396.898834,334.915894 397.086761,335.286438 
	C397.771484,336.054901 398.399384,336.515808 399.078918,337.315491 
	C402.594604,341.836487 406.058624,346.018738 409.742737,350.520294 
	C413.119720,354.994781 412.630188,359.329285 410.846771,363.880035 
	C409.363037,367.666016 408.219727,371.585388 406.678284,376.183502 
	C411.810669,376.183502 416.248505,376.183502 420.686310,376.183502 
	C426.254639,401.922089 425.029266,427.481445 412.675171,450.723938 
	C382.631073,507.247650 305.407867,515.941223 261.581390,468.535736 
	C260.362701,467.217499 259.145782,465.897675 257.807037,464.447510 
	C253.439560,471.039551 249.721375,477.553375 245.151657,483.401917 
	C216.275818,520.358398 178.301361,537.998291 131.453308,535.175720 
	C71.663666,531.573547 21.550781,485.540161 11.973908,425.809906 
	C0.404872,353.654663 52.105415,284.783234 124.514877,276.143860 
	C140.109421,274.283264 155.415558,275.258759 170.685623,278.620636 
	C174.224716,279.399841 175.816620,281.098450 176.702194,284.683167 
	C180.958847,301.914001 188.149063,317.693054 200.872223,330.489380 
	C202.038574,331.662476 203.464752,332.577179 205.244690,333.291412 
	C177.752487,298.892975 170.010178,262.089813 194.262177,223.516937 
	C217.875748,185.959427 253.359924,173.389587 295.975464,181.001099 
	C297.308746,171.592636 297.982727,162.113037 300.068756,152.955063 
	C307.989319,118.182877 339.218994,89.691246 374.554535,83.856270 
	C393.740509,80.688072 411.994781,83.196678 429.756042,90.791466 
	C432.922363,92.145393 434.111603,93.923988 434.342712,97.443871 
	C435.506134,115.162933 438.742767,132.422180 447.476868,148.928223 
	C450.356842,153.167450 452.924500,156.819214 455.553497,160.642593 
	C455.614868,160.814209 455.888397,161.056015 455.995728,161.374466 
	C460.095978,165.161972 464.088867,168.631012 468.081787,172.100052 
	C468.407837,171.733078 468.733887,171.366089 469.059937,170.999115 
	C465.087280,167.249039 461.114624,163.498978 457.079041,159.653885 
	C457.016113,159.558853 456.816925,159.448105 456.676697,159.124146 
	C454.144745,155.025757 451.753052,151.251312 449.361359,147.476868 
	C441.863342,131.056839 439.494720,113.614998 439.219818,95.789513 
	C439.185059,93.535301 439.583557,91.078781 440.495300,89.034401 
	C459.690430,45.993435 492.294647,19.181967 538.811035,11.398725 
	C593.845886,2.190160 644.446838,26.697739 673.425476,74.741394 
	C673.840820,75.429977 674.274780,76.107368 675.027954,77.316200 
	C676.212952,75.719505 677.144592,74.464157 678.706116,73.028427 
	C693.361389,68.332993 707.223999,63.201859 721.449402,59.443714 
	C744.205505,53.431904 767.336487,51.139801 790.864563,54.892944 
	C824.457336,60.251602 849.117371,77.909210 864.487122,108.157333 
	C876.193542,131.196014 880.526367,156.150223 881.941956,181.687943 
	C882.328674,188.664764 882.123962,195.681137 882.005737,202.676224 
	C881.950623,205.937088 882.431152,208.286804 886.479919,208.155441 
	C887.929016,208.108414 889.394348,208.714127 890.859497,208.982391 
	C908.678772,212.245209 921.286804,222.222748 929.008911,238.529251 
	C934.319458,249.743347 935.516907,261.801239 935.838196,273.926636 
	C935.953003,278.259247 937.428894,278.884735 941.337097,279.122986 
	C959.522339,280.231567 977.903625,280.449249 995.799133,283.457733 
	C1024.758301,288.326202 1052.452759,297.448334 1077.281860,314.013672 
	C1096.746948,327.000458 1112.411377,343.300201 1123.466431,363.946838 
	C1131.616455,379.167938 1136.700928,395.385345 1139.124023,412.473602 
	C1139.258911,413.425781 1140.590698,414.208282 1141.365356,415.069763 
M393.872284,331.828979 
	C393.872284,331.828979 393.667664,331.765594 393.667664,331.765594 
	C393.667664,331.765594 394.020966,331.990326 394.163513,332.213928 
	C394.228760,332.262177 394.294006,332.310425 394.359253,332.358673 
	C394.235107,332.246918 394.110931,332.135193 393.872284,331.828979 
M206.001923,334.939209 
	C211.078186,338.742432 216.369080,342.074158 223.037598,342.458069 
	C217.715912,339.269165 212.394226,336.080261 206.055771,332.542175 
	C205.938110,333.143188 205.820465,333.744232 206.001923,334.939209 
M818.119934,342.066193 
	C819.384766,342.350433 820.651611,342.626038 821.914124,342.920319 
	C828.766418,344.517426 835.617737,346.119202 843.036499,348.029755 
	C853.815369,359.221558 875.631226,360.198151 888.564392,348.043518 
	C888.997437,348.037262 889.430542,348.030975 890.028320,348.896515 
	C890.112671,350.818359 890.197021,352.740204 890.283508,354.710632 
	C899.375671,354.710632 907.903442,354.710632 917.263672,354.710632 
	C917.263672,347.258362 917.263672,340.168610 917.951782,332.997223 
	C926.890015,326.559570 935.887878,320.202393 944.736084,313.643341 
	C948.100342,311.149475 947.454163,308.853302 943.944397,307.267151 
	C938.763489,310.787964 934.026794,314.443939 928.872070,317.361359 
	C925.234863,319.419922 921.030579,320.476532 916.917297,321.057709 
	C916.913208,305.724854 916.902405,290.392029 916.907166,275.059174 
	C916.911011,262.559509 916.997070,250.059158 916.864197,237.561050 
	C916.848206,236.060181 915.733276,233.294296 915.053528,233.270920 
	C906.475586,232.975876 897.884094,233.077103 888.862549,233.077103 
	C888.862549,245.822174 888.862549,257.766479 888.862549,268.917267 
	C882.099060,268.917267 875.793030,268.647034 869.517578,268.969635 
	C852.953613,269.821136 839.396484,280.353851 833.753479,295.807526 
	C830.247437,305.408936 831.168274,315.167847 830.721680,324.991730 
	C826.322388,322.952087 821.923096,320.912445 817.249023,317.990814 
	C817.249023,302.227692 817.249023,286.464569 817.249023,270.551605 
	C807.444153,270.551605 798.406616,270.551605 789.499390,270.551605 
	C789.275513,271.273529 789.092590,271.588440 789.092346,271.903503 
	C789.076660,289.228638 788.892578,306.556915 789.188599,323.876953 
	C789.275208,328.945099 786.960510,331.608856 782.902344,333.485565 
	C773.786377,337.701294 765.287109,332.914185 764.845764,322.623627 
	C764.175476,306.994507 764.257812,291.333008 764.027832,275.685150 
	C764.002380,273.950439 764.024414,272.214996 764.024414,270.539795 
	C754.277893,270.539795 745.379883,270.539795 737.025085,270.539795 
	C737.025085,289.393951 736.543518,307.863434 737.210083,326.291382 
	C737.594788,336.926758 742.231323,346.227905 750.926331,353.633820 
	C747.928528,354.756531 744.967529,356.713440 741.926147,356.847321 
	C732.362122,357.268433 722.744141,357.401825 713.195923,356.829803 
	C708.741394,356.562958 704.399475,354.416443 700.595398,352.728516 
	C725.844116,341.363892 729.049988,309.614990 719.203308,290.377014 
	C708.754578,269.962677 685.089600,264.825043 662.615356,271.045197 
	C656.919128,272.621735 651.160522,276.079865 646.851562,280.170319 
	C633.409668,292.930817 631.339600,309.188843 635.691467,326.291870 
	C640.271484,344.291351 652.859375,353.835236 670.929504,356.247437 
	C676.177002,356.947968 681.559570,356.636139 687.171265,357.337555 
	C700.401794,364.215302 714.567078,367.411041 729.320312,369.225891 
	C745.999878,371.277740 761.549316,368.112091 776.666443,361.595825 
	C781.325623,359.587524 785.772095,357.085815 791.203857,354.955261 
	C796.143250,355.000122 801.082642,355.076385 806.022095,355.083374 
	C816.882324,355.098694 816.879211,355.084351 817.149536,344.034943 
	C817.165466,343.381195 817.291016,342.730133 818.119934,342.066193 
M335.611542,252.153549 
	C323.526184,251.659042 312.158569,248.219025 300.928589,244.010178 
	C299.466431,243.462189 297.351379,244.656189 295.538757,245.043320 
	C296.509216,246.429886 297.180206,248.549713 298.497284,249.087585 
	C309.534271,253.595001 320.689850,257.812012 331.695465,262.887634 
	C324.567688,278.164001 317.439880,293.440369 309.945129,309.503235 
	C308.512329,306.990082 307.593964,305.603119 306.891968,304.114136 
	C297.455170,284.098511 287.978302,264.101074 278.706604,244.009018 
	C277.233185,240.816071 275.502228,239.465317 271.918365,239.676529 
	C266.605499,239.989670 261.247559,239.971191 255.932480,239.672562 
	C251.962234,239.449463 250.394958,240.536835 250.265152,244.831833 
	C249.998932,253.639465 249.062622,262.426941 248.398895,271.222443 
	C246.545685,295.780640 244.690826,320.338684 241.976669,345.013947 
	C235.870346,344.261658 229.764023,343.509399 223.657700,342.757111 
	C223.564865,343.187164 223.472015,343.617218 223.379166,344.047272 
	C225.804550,344.658417 228.200394,345.466003 230.662033,345.835968 
	C234.642563,346.434235 238.666306,346.744843 242.677612,347.821503 
	C242.584488,348.458038 242.491379,349.094574 241.863937,350.113525 
	C242.267365,351.715790 242.670776,353.318085 243.995697,355.038635 
	C252.581207,355.038635 261.166718,355.038635 270.840485,355.038635 
	C270.840485,349.232697 270.840485,344.116577 271.284607,338.745331 
	C271.205200,338.165314 271.125763,337.585297 271.125275,336.170837 
	C271.709503,325.780670 272.293732,315.390472 273.275726,304.712006 
	C273.177246,304.142609 273.078766,303.573212 272.997406,302.126312 
	C273.066406,299.793091 273.135406,297.459839 273.906860,295.005890 
	C274.368469,294.895660 274.830109,294.785431 275.657562,295.283417 
	C281.852356,307.976196 288.123047,320.632996 294.179810,333.391266 
	C295.437225,336.039917 296.953827,337.046692 299.879089,336.949310 
	C306.361694,336.733612 312.863007,336.687927 319.342499,336.939514 
	C322.539185,337.063629 324.139343,335.817871 325.411255,333.057312 
	C329.165375,324.909149 333.098663,316.842529 337.034973,308.779755 
	C339.489532,303.752106 342.076447,298.789093 344.603943,293.797058 
	C345.055756,293.933777 345.507568,294.070465 345.959381,294.207184 
	C347.010712,314.349487 348.062042,334.491821 349.116028,354.684692 
	C358.702087,354.684692 367.897125,354.684692 377.220856,354.684692 
	C375.997742,338.731323 374.752411,323.186981 373.629150,307.633820 
	C372.576965,293.065063 371.654022,278.486938 371.519562,263.946228 
	C391.888794,260.178406 409.525146,251.311661 423.565796,235.855835 
	C425.867828,233.321747 427.882538,232.815125 431.369690,234.006271 
	C441.358368,237.418213 451.476837,240.574814 461.732483,243.052826 
	C479.191071,247.271225 496.364319,244.568726 513.080322,239.035507 
	C533.251221,232.358688 550.552612,220.892471 565.752197,206.036652 
	C563.782898,201.708755 561.221069,203.070786 558.568970,204.991791 
	C541.094421,217.649231 522.164795,226.582352 500.413574,229.218613 
	C479.870117,231.708511 460.790955,227.752762 443.052887,217.495071 
	C437.369415,214.208405 432.523376,209.500900 427.075653,205.761856 
	C425.526245,204.698441 422.265350,203.718201 421.414520,204.490448 
	C418.644592,207.004395 416.250092,210.131943 414.381714,213.406036 
	C404.162231,231.314362 389.733337,243.986374 369.510010,249.302567 
	C369.121460,246.231354 368.732910,243.160126 368.301910,239.753311 
	C364.517151,239.753311 361.159149,240.202957 357.964447,239.671356 
	C347.157776,237.873138 339.462097,240.921295 335.611542,252.153549 
M509.480499,307.458008 
	C509.244598,305.307098 508.975952,303.159210 508.777954,301.004822 
	C507.249817,284.373322 513.207275,270.823486 525.761780,265.104523 
	C531.345825,262.560791 537.887878,260.972260 543.990967,260.984711 
	C553.143799,261.003387 562.292969,262.813751 571.963867,263.921783 
	C572.867554,259.744904 573.685913,254.683014 575.103149,249.794785 
	C576.361938,245.453400 574.917664,243.519348 570.786560,242.192474 
	C555.526917,237.291138 539.954224,236.287659 524.411438,239.518600 
	C506.257782,243.292297 492.429718,253.389389 485.060059,270.887665 
	C478.910553,285.488770 478.584656,300.740417 482.262177,315.920166 
	C485.068817,327.505005 490.952911,337.667542 500.848969,344.708466 
	C523.554077,360.862885 548.118408,359.964050 573.267761,351.752472 
	C574.268677,351.425690 575.697449,349.811829 575.566040,349.024872 
	C574.511230,342.706482 573.129028,336.442810 572.001404,330.919373 
	C562.179077,332.175476 553.007446,334.411621 543.867432,334.289276 
	C526.454773,334.056183 513.356812,325.846802 509.480499,307.458008 
M626.595642,355.317627 
	C627.477539,354.391846 629.078613,353.498688 629.122314,352.534943 
	C629.368835,347.097534 629.241333,341.643158 629.241333,336.330353 
	C615.678955,334.790710 615.622192,334.790741 615.617615,321.440125 
	C615.608093,293.952454 615.665649,266.464783 615.695129,238.977127 
	C615.697083,237.193787 615.695435,235.410446 615.695435,233.329483 
	C606.196533,233.329483 597.299927,233.329483 588.391968,233.329483 
	C588.164368,233.945663 587.847046,234.403778 587.846985,234.861923 
	C587.842590,267.846802 587.416626,300.840790 588.086853,333.812439 
	C588.383362,348.397308 596.018616,356.838531 611.902649,356.600555 
	C616.541809,356.531036 621.172180,355.874817 626.595642,355.317627 
z"/>
<path fill="#B7D2ED" opacity="1.000000" stroke="none" 
	d="
M1141.593018,414.773499 
	C1140.590698,414.208282 1139.258911,413.425781 1139.124023,412.473602 
	C1136.700928,395.385345 1131.616455,379.167938 1123.466431,363.946838 
	C1112.411377,343.300201 1096.746948,327.000458 1077.281860,314.013672 
	C1052.452759,297.448334 1024.758301,288.326202 995.799133,283.457733 
	C977.903625,280.449249 959.522339,280.231567 941.337097,279.122986 
	C937.428894,278.884735 935.953003,278.259247 935.838196,273.926636 
	C935.516907,261.801239 934.319458,249.743347 929.008911,238.529251 
	C921.286804,222.222748 908.678772,212.245209 890.859497,208.982391 
	C889.394348,208.714127 887.929016,208.108414 886.479919,208.155441 
	C882.431152,208.286804 881.950623,205.937088 882.005737,202.676224 
	C882.123962,195.681137 882.328674,188.664764 881.941956,181.687943 
	C880.526367,156.150223 876.193542,131.196014 864.487122,108.157333 
	C849.117371,77.909210 824.457336,60.251602 790.864563,54.892944 
	C767.336487,51.139801 744.205505,53.431904 721.449402,59.443714 
	C707.223999,63.201859 693.361389,68.332993 678.939209,72.797501 
	C691.594360,50.338795 710.117126,33.782791 733.318359,22.575356 
	C811.824646,-15.347284 904.329041,32.526321 918.729126,118.547508 
	C923.049561,144.356552 919.542603,169.299271 908.696289,193.162430 
	C907.870056,194.980255 907.034973,196.794418 906.244019,198.627563 
	C906.125488,198.902313 906.227600,199.272278 906.227600,200.138702 
	C932.473145,215.070023 948.731873,237.699417 954.434631,267.908752 
	C1004.332520,244.882889 1052.199097,247.341354 1095.317017,281.330872 
	C1138.317993,315.228210 1153.109619,360.733917 1141.593018,414.773499 
z"/>
<path fill="#B7D2ED" opacity="1.000000" stroke="none" 
	d="
M453.143066,470.551025 
	C454.190063,469.399170 455.363525,468.091522 456.794861,467.679382 
	C475.636139,462.254120 493.249634,454.073456 509.438293,443.139252 
	C530.041809,429.223114 546.394104,411.393829 556.712769,388.465759 
	C557.780090,386.094055 558.890381,383.741669 560.612061,380.013092 
	C563.340271,383.172607 565.416565,385.734680 567.656006,388.145142 
	C582.951904,404.609406 600.206604,418.560364 620.609558,428.215118 
	C639.176941,437.001312 658.624817,439.853546 678.788025,434.968628 
	C691.769531,431.823608 703.418335,425.626160 712.936157,416.347839 
	C721.800781,407.706268 729.787903,398.154755 738.003601,388.864380 
	C740.002930,386.603607 741.227295,386.457794 742.969238,388.957428 
	C752.253357,402.279938 761.067017,415.976440 771.063110,428.745331 
	C784.581238,446.013153 799.282654,462.313416 816.001892,476.647583 
	C823.179321,482.801147 830.372986,488.936188 837.505371,495.141663 
	C838.202393,495.748138 838.518860,496.792084 839.032227,498.013062 
	C815.867920,501.206848 794.813782,495.402283 775.768860,482.250854 
	C758.941223,470.630615 747.288513,454.960510 740.699280,435.562195 
	C740.176514,434.023285 739.489929,432.540100 738.598633,430.336761 
	C718.343506,461.430298 690.512329,478.320465 653.586670,477.001526 
	C616.818787,475.688232 590.360229,456.996735 572.472839,425.191681 
	C544.099304,470.076782 505.328369,487.700562 453.143066,470.551025 
z"/>
<path fill="#172D52" opacity="1.000000" stroke="none" 
	d="
M421.087341,376.128052 
	C416.248505,376.183502 411.810669,376.183502 406.678284,376.183502 
	C408.219727,371.585388 409.363037,367.666016 410.846771,363.880035 
	C412.630188,359.329285 413.119720,354.994781 409.781921,350.142212 
	C409.077057,347.330139 408.553101,345.215485 408.029114,343.100800 
	C399.586060,319.150970 391.143005,295.201111 382.309998,270.145081 
	C390.138184,270.145081 397.208130,270.547150 404.207245,270.015686 
	C409.641663,269.603058 411.895630,271.198944 413.165863,276.720551 
	C416.955780,293.195038 421.476440,309.501434 426.800262,326.084351 
	C427.509888,324.616791 428.488617,323.218628 428.887482,321.670990 
	C432.823547,306.398865 436.770996,291.127838 440.459686,275.795013 
	C441.463440,271.622650 443.071350,269.716858 447.775818,270.032104 
	C455.011810,270.517029 462.304260,270.159668 470.196716,270.159668 
	C466.878998,280.139130 463.813660,289.392426 460.726654,298.638519 
	C452.886108,322.122437 444.789093,345.525604 437.373657,369.142883 
	C435.652466,374.624695 433.485291,377.100494 427.829132,376.079315 
	C426.861145,375.904572 425.835449,376.049408 424.374268,376.005615 
	C423.104187,376.000641 422.296295,376.036621 421.087341,376.128052 
z"/>
<path fill="#546070" opacity="1.000000" stroke="none" 
	d="
M449.226562,147.738571 
	C451.753052,151.251312 454.144745,155.025757 456.331757,159.364120 
	C455.915375,160.109039 455.703735,160.290024 455.492126,160.470978 
	C452.924500,156.819214 450.356842,153.167450 447.734924,149.194946 
	C448.151001,148.582901 448.621368,148.291595 449.226562,147.738571 
z"/>
<path fill="#162C51" opacity="1.000000" stroke="none" 
	d="
M270.840485,339.000427 
	C270.840485,344.116577 270.840485,349.232697 270.840485,355.038635 
	C261.166718,355.038635 252.581207,355.038635 243.496155,354.541901 
	C242.797165,352.607147 242.597717,351.169128 242.398254,349.731110 
	C242.491379,349.094574 242.584488,348.458038 242.845932,347.140015 
	C242.955048,345.937958 242.895859,345.417358 242.836639,344.896790 
	C244.690826,320.338684 246.545685,295.780640 248.398895,271.222443 
	C249.062622,262.426941 249.998932,253.639465 250.265152,244.831833 
	C250.394958,240.536835 251.962234,239.449463 255.932480,239.672562 
	C261.247559,239.971191 266.605499,239.989670 271.918365,239.676529 
	C275.502228,239.465317 277.233185,240.816071 278.706604,244.009018 
	C287.978302,264.101074 297.455170,284.098511 306.891968,304.114136 
	C307.593964,305.603119 308.512329,306.990082 309.945129,309.503235 
	C317.439880,293.440369 324.567688,278.164001 332.007629,262.314423 
	C333.737732,258.600342 335.155731,255.459473 336.573730,252.318619 
	C339.462097,240.921295 347.157776,237.873138 357.964447,239.671356 
	C361.159149,240.202957 364.517151,239.753311 368.301910,239.753311 
	C368.732910,243.160126 369.121460,246.231354 369.549561,250.121857 
	C369.950775,255.265060 370.312500,259.588989 370.674225,263.912933 
	C371.654022,278.486938 372.576965,293.065063 373.629150,307.633820 
	C374.752411,323.186981 375.997742,338.731323 377.220856,354.684692 
	C367.897125,354.684692 358.702087,354.684692 349.116028,354.684692 
	C348.062042,334.491821 347.010712,314.349487 345.959381,294.207184 
	C345.507568,294.070465 345.055756,293.933777 344.603943,293.797058 
	C342.076447,298.789093 339.489532,303.752106 337.034973,308.779755 
	C333.098663,316.842529 329.165375,324.909149 325.411255,333.057312 
	C324.139343,335.817871 322.539185,337.063629 319.342499,336.939514 
	C312.863007,336.687927 306.361694,336.733612 299.879089,336.949310 
	C296.953827,337.046692 295.437225,336.039917 294.179810,333.391266 
	C288.123047,320.632996 281.852356,307.976196 275.496033,294.612152 
	C274.796631,293.301666 274.258759,292.662476 273.204407,291.409454 
	C273.204407,293.248749 273.204407,294.187683 273.204407,295.126617 
	C273.135406,297.459839 273.066406,299.793091 272.803772,302.713989 
	C272.699432,303.867889 272.788696,304.434082 272.877960,305.000305 
	C272.293732,315.390472 271.709503,325.780670 270.872070,336.714111 
	C270.692719,337.838409 270.766602,338.419403 270.840485,339.000427 
z"/>
<path fill="#172C52" opacity="1.000000" stroke="none" 
	d="
M831.548828,324.968872 
	C831.168274,315.167847 830.247437,305.408936 833.753479,295.807526 
	C839.396484,280.353851 852.953613,269.821136 869.517578,268.969635 
	C875.793030,268.647034 882.099060,268.917267 888.862549,268.917267 
	C888.862549,257.766479 888.862549,245.822174 888.862549,233.077103 
	C897.884094,233.077103 906.475586,232.975876 915.053528,233.270920 
	C915.733276,233.294296 916.848206,236.060181 916.864197,237.561050 
	C916.997070,250.059158 916.911011,262.559509 916.907166,275.059174 
	C916.902405,290.392029 916.913208,305.724854 916.866455,321.964600 
	C916.965027,326.273926 917.114319,329.676361 917.263672,333.078827 
	C917.263672,340.168610 917.263672,347.258362 917.263672,354.710632 
	C907.903442,354.710632 899.375671,354.710632 890.283508,354.710632 
	C890.197021,352.740204 890.112671,350.818359 890.068909,348.170898 
	C889.380066,347.611542 888.650635,347.777771 887.921204,347.944031 
	C875.631226,360.198151 853.815369,359.221558 842.639526,347.544220 
	C836.411560,340.792572 833.725769,333.003906 831.548828,324.968872 
M871.510193,290.731018 
	C868.311035,293.450928 864.130066,295.589874 862.108337,299.006531 
	C857.252258,307.212952 857.690125,316.445892 860.661194,325.136230 
	C864.351624,335.930786 877.591858,339.191650 886.482666,331.872498 
	C887.805786,330.783264 888.875488,328.575836 888.909485,326.862793 
	C889.124695,316.036774 888.950989,305.203644 889.054871,294.374298 
	C889.082703,291.472046 888.025146,289.851288 885.104553,289.895264 
	C880.810120,289.959839 876.518433,290.205963 871.510193,290.731018 
z"/>
<path fill="#172C52" opacity="1.000000" stroke="none" 
	d="
M509.565948,307.882446 
	C513.356812,325.846802 526.454773,334.056183 543.867432,334.289276 
	C553.007446,334.411621 562.179077,332.175476 572.001404,330.919373 
	C573.129028,336.442810 574.511230,342.706482 575.566040,349.024872 
	C575.697449,349.811829 574.268677,351.425690 573.267761,351.752472 
	C548.118408,359.964050 523.554077,360.862885 500.848969,344.708466 
	C490.952911,337.667542 485.068817,327.505005 482.262177,315.920166 
	C478.584656,300.740417 478.910553,285.488770 485.060059,270.887665 
	C492.429718,253.389389 506.257782,243.292297 524.411438,239.518600 
	C539.954224,236.287659 555.526917,237.291138 570.786560,242.192474 
	C574.917664,243.519348 576.361938,245.453400 575.103149,249.794785 
	C573.685913,254.683014 572.867554,259.744904 571.963867,263.921783 
	C562.292969,262.813751 553.143799,261.003387 543.990967,260.984711 
	C537.887878,260.972260 531.345825,262.560791 525.761780,265.104523 
	C513.207275,270.823486 507.249817,284.373322 508.777954,301.004822 
	C508.975952,303.159210 509.244598,305.307098 509.565948,307.882446 
z"/>
<path fill="#172C51" opacity="1.000000" stroke="none" 
	d="
M686.880249,356.788391 
	C681.559570,356.636139 676.177002,356.947968 670.929504,356.247437 
	C652.859375,353.835236 640.271484,344.291351 635.691467,326.291870 
	C631.339600,309.188843 633.409668,292.930817 646.851562,280.170319 
	C651.160522,276.079865 656.919128,272.621735 662.615356,271.045197 
	C685.089600,264.825043 708.754578,269.962677 719.203308,290.377014 
	C729.049988,309.614990 725.844116,341.363892 699.926147,352.901489 
	C695.131287,354.312408 691.005798,355.550385 686.880249,356.788391 
M688.075012,333.810455 
	C696.163147,326.999054 699.025879,310.170685 694.081055,299.119141 
	C691.120361,292.502075 686.195618,289.000824 678.890503,289.059509 
	C671.561157,289.118408 666.649963,292.700104 663.991638,299.465790 
	C660.817505,307.544067 660.817444,315.902618 663.279053,323.965332 
	C666.791382,335.469757 676.823792,339.446320 688.075012,333.810455 
z"/>
<path fill="#172D52" opacity="1.000000" stroke="none" 
	d="
M751.078674,352.893219 
	C742.231323,346.227905 737.594788,336.926758 737.210083,326.291382 
	C736.543518,307.863434 737.025085,289.393951 737.025085,270.539795 
	C745.379883,270.539795 754.277893,270.539795 764.024414,270.539795 
	C764.024414,272.214996 764.002380,273.950439 764.027832,275.685150 
	C764.257812,291.333008 764.175476,306.994507 764.845764,322.623627 
	C765.287109,332.914185 773.786377,337.701294 782.902344,333.485565 
	C786.960510,331.608856 789.275208,328.945099 789.188599,323.876953 
	C788.892578,306.556915 789.076660,289.228638 789.092346,271.903503 
	C789.092590,271.588440 789.275513,271.273529 789.499390,270.551605 
	C798.406616,270.551605 807.444153,270.551605 817.249023,270.551605 
	C817.249023,286.464569 817.249023,302.227692 817.209595,318.880310 
	C817.235291,327.205811 817.300415,334.641815 817.365540,342.077820 
	C817.291016,342.730133 817.165466,343.381195 817.149536,344.034943 
	C816.879211,355.084351 816.882324,355.098694 806.022095,355.083374 
	C801.082642,355.076385 796.143250,355.000122 790.733521,354.456940 
	C790.129028,351.447662 789.994934,348.936676 789.825867,345.771606 
	C778.172058,358.242737 765.257141,359.342072 751.078674,352.893219 
z"/>
<path fill="#182D52" opacity="1.000000" stroke="none" 
	d="
M626.201111,355.402557 
	C621.172180,355.874817 616.541809,356.531036 611.902649,356.600555 
	C596.018616,356.838531 588.383362,348.397308 588.086853,333.812439 
	C587.416626,300.840790 587.842590,267.846802 587.846985,234.861923 
	C587.847046,234.403778 588.164368,233.945663 588.391968,233.329483 
	C597.299927,233.329483 606.196533,233.329483 615.695435,233.329483 
	C615.695435,235.410446 615.697083,237.193787 615.695129,238.977127 
	C615.665649,266.464783 615.608093,293.952454 615.617615,321.440125 
	C615.622192,334.790741 615.678955,334.790710 629.241333,336.330353 
	C629.241333,341.643158 629.368835,347.097534 629.122314,352.534943 
	C629.078613,353.498688 627.477539,354.391846 626.201111,355.402557 
z"/>
<path fill="#B9D3ED" opacity="1.000000" stroke="none" 
	d="
M371.096893,263.929565 
	C370.312500,259.588989 369.950775,255.265060 369.703552,250.493347 
	C389.733337,243.986374 404.162231,231.314362 414.381714,213.406036 
	C416.250092,210.131943 418.644592,207.004395 421.414520,204.490448 
	C422.265350,203.718201 425.526245,204.698441 427.075653,205.761856 
	C432.523376,209.500900 437.369415,214.208405 443.052887,217.495071 
	C460.790955,227.752762 479.870117,231.708511 500.413574,229.218613 
	C522.164795,226.582352 541.094421,217.649231 558.568970,204.991791 
	C561.221069,203.070786 563.782898,201.708755 565.752197,206.036652 
	C550.552612,220.892471 533.251221,232.358688 513.080322,239.035507 
	C496.364319,244.568726 479.191071,247.271225 461.732483,243.052826 
	C451.476837,240.574814 441.358368,237.418213 431.369690,234.006271 
	C427.882538,232.815125 425.867828,233.321747 423.565796,235.855835 
	C409.525146,251.311661 391.888794,260.178406 371.096893,263.929565 
z"/>
<path fill="#B7CFE8" opacity="1.000000" stroke="none" 
	d="
M751.002502,353.263519 
	C765.257141,359.342072 778.172058,358.242737 789.825867,345.771606 
	C789.994934,348.936676 790.129028,351.447662 790.289551,354.384338 
	C785.772095,357.085815 781.325623,359.587524 776.666443,361.595825 
	C761.549316,368.112091 745.999878,371.277740 729.320312,369.225891 
	C714.567078,367.411041 700.401794,364.215302 687.025757,357.062958 
	C691.005798,355.550385 695.131287,354.312408 699.631653,353.098175 
	C704.399475,354.416443 708.741394,356.562958 713.195923,356.829803 
	C722.744141,357.401825 732.362122,357.268433 741.926147,356.847321 
	C744.967529,356.713440 747.928528,354.756531 751.002502,353.263519 
z"/>
<path fill="#B2C9E1" opacity="1.000000" stroke="none" 
	d="
M817.742737,342.072021 
	C817.300415,334.641815 817.235291,327.205811 817.346985,319.321289 
	C821.923096,320.912445 826.322388,322.952087 831.135254,324.980286 
	C833.725769,333.003906 836.411560,340.792572 842.355957,347.389038 
	C835.617737,346.119202 828.766418,344.517426 821.914124,342.920319 
	C820.651611,342.626038 819.384766,342.350433 817.742737,342.072021 
z"/>
<path fill="#BAD3EB" opacity="1.000000" stroke="none" 
	d="
M336.092651,252.236084 
	C335.155731,255.459473 333.737732,258.600342 332.064758,261.928864 
	C320.689850,257.812012 309.534271,253.595001 298.497284,249.087585 
	C297.180206,248.549713 296.509216,246.429886 295.538757,245.043320 
	C297.351379,244.656189 299.466431,243.462189 300.928589,244.010178 
	C312.158569,248.219025 323.526184,251.659042 336.092651,252.236084 
z"/>
<path fill="#BDCCDD" opacity="1.000000" stroke="none" 
	d="
M917.607727,333.038025 
	C917.114319,329.676361 916.965027,326.273926 916.947571,322.425964 
	C921.030579,320.476532 925.234863,319.419922 928.872070,317.361359 
	C934.026794,314.443939 938.763489,310.787964 943.944397,307.267151 
	C947.454163,308.853302 948.100342,311.149475 944.736084,313.643341 
	C935.887878,320.202393 926.890015,326.559570 917.607727,333.038025 
z"/>
<path fill="#636D7D" opacity="1.000000" stroke="none" 
	d="
M207.072540,332.891357 
	C212.394226,336.080261 217.715912,339.269165 223.037598,342.458069 
	C216.369080,342.074158 211.078186,338.742432 206.142654,334.459686 
	C206.546448,333.617218 206.809494,333.254303 207.072540,332.891357 
z"/>
<path fill="#A5ACB3" opacity="1.000000" stroke="none" 
	d="
M407.627777,343.045197 
	C408.553101,345.215485 409.077057,347.330139 409.561829,349.822906 
	C406.058624,346.018738 402.594604,341.836487 399.063599,337.329071 
	C398.996674,337.003906 398.967773,337.033203 398.967773,337.033203 
	C401.720673,339.018677 404.473541,341.004120 407.627777,343.045197 
z"/>
<path fill="#9499A2" opacity="1.000000" stroke="none" 
	d="
M242.406662,344.955383 
	C242.895859,345.417358 242.955048,345.937958 242.843033,346.817719 
	C238.666306,346.744843 234.642563,346.434235 230.662033,345.835968 
	C228.200394,345.466003 225.804550,344.658417 223.379166,344.047272 
	C223.472015,343.617218 223.564865,343.187164 223.657700,342.757111 
	C229.764023,343.509399 235.870346,344.261658 242.406662,344.955383 
z"/>
<path fill="#747981" opacity="1.000000" stroke="none" 
	d="
M457.141968,159.748932 
	C461.114624,163.498978 465.087280,167.249039 469.059937,170.999115 
	C468.733887,171.366089 468.407837,171.733078 468.081787,172.100052 
	C464.088867,168.631012 460.095978,165.161972 456.279358,161.239288 
	C456.684418,160.440079 456.913208,160.094513 457.141968,159.748932 
z"/>
<path fill="#9499A2" opacity="1.000000" stroke="none" 
	d="
M242.131104,349.922302 
	C242.597717,351.169128 242.797165,352.607147 243.035400,354.482758 
	C242.670776,353.318085 242.267365,351.715790 242.131104,349.922302 
z"/>
<path fill="#9499A2" opacity="1.000000" stroke="none" 
	d="
M273.555634,295.066254 
	C273.204407,294.187683 273.204407,293.248749 273.204407,291.409454 
	C274.258759,292.662476 274.796631,293.301666 275.313110,294.308044 
	C274.830109,294.785431 274.368469,294.895660 273.555634,295.066254 
z"/>
<path fill="#9499A2" opacity="1.000000" stroke="none" 
	d="
M273.076843,304.856140 
	C272.788696,304.434082 272.699432,303.867889 272.795227,303.152740 
	C273.078766,303.573212 273.177246,304.142609 273.076843,304.856140 
z"/>
<path fill="#9499A2" opacity="1.000000" stroke="none" 
	d="
M271.062561,338.872864 
	C270.766602,338.419403 270.692719,337.838409 270.832581,337.131348 
	C271.125763,337.585297 271.205200,338.165314 271.062561,338.872864 
z"/>
<path fill="#A5ACB3" opacity="1.000000" stroke="none" 
	d="
M399.011993,336.990295 
	C398.399384,336.515808 397.771484,336.054901 397.070984,335.298920 
	C396.998383,335.003845 396.971588,335.034149 396.971588,335.034149 
	C397.638763,335.477020 398.305939,335.919891 398.970459,336.697998 
	C398.967773,337.033203 398.996674,337.003906 399.011993,336.990295 
z"/>
<path fill="#BDCCDD" opacity="1.000000" stroke="none" 
	d="
M888.242798,347.993774 
	C888.650635,347.777771 889.380066,347.611542 889.986572,347.734985 
	C889.430542,348.030975 888.997437,348.037262 888.242798,347.993774 
z"/>
<path fill="#A5ACB3" opacity="1.000000" stroke="none" 
	d="
M397.014160,334.991333 
	C396.898834,334.915894 396.767731,334.852936 396.636597,334.789978 
	C396.735931,334.757355 396.835266,334.724701 396.953094,334.863098 
	C396.971588,335.034149 396.998383,335.003845 397.014160,334.991333 
z"/>
<path fill="#324460" opacity="1.000000" stroke="none" 
	d="
M206.564148,332.716766 
	C206.809494,333.254303 206.546448,333.617218 205.993103,334.162720 
	C205.820465,333.744232 205.938110,333.143188 206.564148,332.716766 
z"/>
<path fill="#A5ACB3" opacity="1.000000" stroke="none" 
	d="
M393.986755,332.023468 
	C394.110931,332.135193 394.235107,332.246918 394.359253,332.358673 
	C394.294006,332.310425 394.228760,332.262177 394.081665,332.108093 
	C393.999786,332.002258 393.986755,332.023468 393.986755,332.023468 
z"/>
<path fill="#A5ACB3" opacity="1.000000" stroke="none" 
	d="
M394.010376,331.996277 
	C394.020966,331.990326 393.667664,331.765594 393.667664,331.765594 
	C393.667664,331.765594 393.872284,331.828979 393.929504,331.926208 
	C393.986755,332.023468 393.999786,332.002258 394.010376,331.996277 
z"/>
<path fill="#546070" opacity="1.000000" stroke="none" 
	d="
M457.079041,159.653900 
	C456.913208,160.094513 456.684418,160.440079 456.172028,160.920837 
	C455.888397,161.056015 455.614868,160.814209 455.553497,160.642609 
	C455.703735,160.290024 455.915375,160.109039 456.471985,159.688080 
	C456.816925,159.448105 457.016113,159.558853 457.079041,159.653900 
z"/>
<path fill="#ECECED" opacity="1.000000" stroke="none" 
	d="
M871.867920,290.552887 
	C876.518433,290.205963 880.810120,289.959839 885.104553,289.895264 
	C888.025146,289.851288 889.082703,291.472046 889.054871,294.374298 
	C888.950989,305.203644 889.124695,316.036774 888.909485,326.862793 
	C888.875488,328.575836 887.805786,330.783264 886.482666,331.872498 
	C877.591858,339.191650 864.351624,335.930786 860.661194,325.136230 
	C857.690125,316.445892 857.252258,307.212952 862.108337,299.006531 
	C864.130066,295.589874 868.311035,293.450928 871.867920,290.552887 
z"/>
<path fill="#ECECED" opacity="1.000000" stroke="none" 
	d="
M687.750366,334.021057 
	C676.823792,339.446320 666.791382,335.469757 663.279053,323.965332 
	C660.817444,315.902618 660.817505,307.544067 663.991638,299.465790 
	C666.649963,292.700104 671.561157,289.118408 678.890503,289.059509 
	C686.195618,289.000824 691.120361,292.502075 694.081055,299.119141 
	C699.025879,310.170685 696.163147,326.999054 687.750366,334.021057 
z"/>
</svg>